<?xml version="1.0" standalone="no"?>
<!DOCTYPE svg PUBLIC "-//W3C//DTD SVG 20010904//EN"
 "http://www.w3.org/TR/2001/REC-SVG-20010904/DTD/svg10.dtd">
<svg version="1.0" xmlns="http://www.w3.org/2000/svg"
 width="1036.000000pt" height="720.000000pt" viewBox="0 0 1036.000000 720.000000"
 preserveAspectRatio="xMidYMid meet">

<g transform="translate(0.000000,720.000000) scale(0.100000,-0.100000)"
fill="#000000" stroke="none">
<path d="M2355 6750 c-133 -18 -293 -73 -405 -139 -140 -83 -293 -255 -350
-394 -21 -52 -27 -57 -59 -62 -136 -20 -217 -50 -316 -116 -144 -97 -252 -248
-296 -416 -29 -108 -29 -269 0 -376 53 -199 185 -364 361 -451 124 -61 214
-80 345 -73 55 4 122 14 148 23 26 9 50 15 51 13 2 -2 13 -37 24 -77 l20 -74
-32 6 c-17 4 -98 9 -181 12 -172 7 -266 -8 -460 -72 -379 -125 -500 -254 -465
-492 43 -285 231 -971 414 -1504 114 -333 140 -390 215 -461 83 -79 147 -101
274 -93 63 4 96 3 92 -4 -7 -12 120 -77 200 -102 33 -10 45 -16 27 -13 -20 3
-31 1 -27 -5 10 -16 -25 -11 -42 5 -8 9 -18 14 -20 11 -8 -8 23 -35 53 -46 15
-6 70 -10 123 -9 78 2 107 -1 154 -19 66 -25 71 -26 62 -12 -3 6 -1 10 4 10 6
0 10 6 8 13 -5 25 53 17 149 -22 55 -22 142 -49 193 -61 52 -11 158 -36 235
-55 78 -19 150 -35 161 -35 15 0 17 -2 6 -9 -9 -6 -10 -14 -5 -22 5 -8 9 -18
9 -23 0 -14 52 -14 77 0 18 10 30 6 81 -27 112 -73 235 -108 402 -116 90 -4
139 -2 199 11 44 9 81 14 84 11 3 -3 -3 -5 -13 -5 -14 0 -15 -3 -5 -15 7 -8
16 -12 22 -9 5 3 17 0 26 -7 9 -7 14 -10 10 -5 -4 4 5 19 20 32 25 21 25 23 7
25 -12 1 -8 4 12 9 17 4 121 1 230 -6 698 -46 1336 -19 2083 87 378 53 1058
210 1500 344 233 71 577 190 680 234 l94 41 36 -34 c55 -52 91 -73 202 -119
136 -57 242 -82 315 -73 144 17 246 109 267 242 9 52 -22 203 -108 525 -36
135 -74 282 -84 326 l-19 82 107 80 c331 249 401 324 429 463 14 63 2 154 -24
194 -14 22 -12 23 61 58 79 38 156 103 224 191 22 29 76 80 120 115 43 34 81
68 84 77 14 37 5 76 -24 103 -42 39 -171 104 -278 140 -231 77 -462 33 -626
-121 -81 -75 -115 -137 -123 -224 l-6 -63 -41 -16 c-23 -9 -64 -39 -91 -66
-27 -28 -52 -50 -55 -50 -3 0 -6 23 -8 52 -3 70 -45 144 -105 183 -25 16 -46
32 -46 35 -1 3 29 11 66 18 126 24 200 74 321 215 165 194 436 548 474 620 31
57 31 164 1 223 -44 84 -259 258 -493 399 -205 124 -285 150 -375 125 -61 -17
-109 -61 -282 -263 -309 -359 -365 -438 -412 -591 -39 -126 -26 -248 40 -393
16 -35 29 -67 29 -72 0 -4 -14 -26 -31 -47 -17 -22 -37 -47 -44 -57 -12 -17
-17 -15 -78 28 -131 91 -260 135 -422 141 -69 3 -99 8 -97 16 2 6 27 62 57
123 l54 112 88 27 c309 95 490 286 580 613 25 88 27 115 28 263 0 191 -11 246
-76 379 -76 155 -230 279 -386 311 -34 7 -98 10 -153 8 -164 -9 -294 -67 -428
-193 -176 -165 -278 -396 -285 -641 -1 -52 -3 -94 -3 -94 -1 0 -15 26 -30 57
-43 84 -148 186 -236 228 -40 19 -87 38 -104 41 l-32 6 28 41 c43 65 78 173
71 219 -1 4 -29 -6 -63 -22 -35 -16 -97 -36 -140 -44 -82 -16 -137 -40 -187
-82 l-32 -26 7 41 c5 30 2 47 -10 66 -35 54 -146 17 -146 -49 0 -36 -11 -38
-61 -13 -62 31 -207 32 -259 1 -19 -11 -36 -27 -38 -35 -1 -8 23 -30 59 -51
62 -39 69 -58 19 -58 -43 0 -157 -38 -233 -77 -130 -69 -245 -230 -283 -399
-31 -141 -1 -340 72 -473 13 -24 24 -45 24 -48 0 -2 -33 -1 -73 3 -92 8 -224
-9 -319 -42 -40 -13 -81 -27 -90 -30 -16 -6 -15 -2 3 35 29 60 37 124 42 319
4 162 3 175 -16 199 l-20 25 -181 -4 c-157 -4 -188 -7 -233 -26 -29 -12 -77
-31 -105 -43 -123 -49 -233 -154 -291 -278 -24 -52 -31 -80 -35 -156 l-5 -93
-44 -7 c-25 -3 -47 -4 -50 -1 -3 3 -16 33 -28 68 -12 35 -27 77 -33 93 -6 17
-25 91 -42 165 -23 100 -27 136 -18 139 6 2 50 23 97 47 174 87 296 239 351
435 28 101 28 275 0 384 -72 283 -290 499 -580 577 -125 33 -300 31 -425 -7
-85 -25 -180 -69 -217 -102 -15 -13 -20 -12 -50 10 -144 108 -405 165 -623
137z m358 -144 c153 -51 271 -130 344 -230 25 -34 46 -63 48 -65 2 -2 -4 18
-14 45 -10 26 -31 59 -47 72 l-28 25 29 24 c43 35 180 99 255 119 45 12 101
18 180 18 103 0 125 -4 209 -33 222 -75 381 -247 437 -471 23 -90 15 -252 -16
-335 -56 -149 -177 -267 -330 -322 -103 -36 -113 -34 -155 40 -19 35 -35 69
-35 74 0 6 23 40 50 76 28 36 59 90 70 120 23 66 43 185 37 224 -3 24 -4 23
-6 -7 0 -20 -8 -62 -16 -93 -62 -238 -256 -357 -494 -303 -108 25 -145 42
-136 63 33 78 55 159 60 218 l6 70 -21 -74 c-51 -188 -192 -321 -405 -382
-110 -31 -257 -31 -333 0 -161 65 -282 201 -318 354 l-14 62 4 -60 c9 -108 94
-252 196 -332 33 -26 59 -51 57 -57 -2 -5 -32 -26 -67 -45 -67 -37 -124 -44
-205 -28 l-40 9 33 -27 c17 -14 32 -30 32 -35 0 -21 -64 -80 -112 -104 -111
-55 -249 -23 -362 84 -29 27 -61 68 -71 90 -10 22 -20 38 -22 36 -2 -2 9 -30
25 -62 44 -86 112 -150 209 -196 46 -21 87 -47 92 -56 5 -9 12 -45 16 -79 l7
-62 -39 -19 c-70 -36 -143 -52 -237 -52 -157 0 -288 52 -386 151 -115 118
-163 237 -163 409 -1 175 56 306 184 425 97 89 255 155 373 155 l43 0 -10 -39
c-9 -33 -6 -59 17 -156 29 -120 45 -151 27 -49 -56 300 102 590 405 743 143
72 280 101 444 97 91 -3 131 -9 193 -30z m5032 -217 c243 -45 400 -295 382
-609 -8 -134 -28 -211 -84 -330 -38 -80 -58 -108 -127 -175 -83 -82 -169 -136
-187 -118 -7 7 -28 4 -62 -7 -29 -10 -77 -25 -107 -34 -30 -8 -73 -30 -94 -48
-43 -35 -125 -159 -170 -255 -25 -53 -31 -60 -43 -47 -15 15 -25 12 -55 -14
-10 -8 -18 -11 -18 -6 0 5 -4 2 -10 -6 -24 -38 -14 8 30 140 48 143 80 265 79
298 0 9 -7 0 -16 -20 -8 -21 -19 -38 -23 -38 -4 0 -10 23 -13 51 -4 32 -29
100 -66 179 -36 76 -65 154 -72 194 -12 64 -22 80 -32 54 -3 -7 -6 32 -6 88
-1 118 21 219 70 315 141 281 384 432 624 388z m-1606 -376 c0 -42 -3 -61 -8
-49 -6 16 -10 12 -19 -23 -6 -24 -8 -50 -5 -59 4 -10 2 -13 -5 -8 -20 12 -16
165 5 188 27 30 33 21 32 -49z m362 19 c-12 -17 -21 -34 -21 -39 0 -4 -10 -19
-21 -33 -18 -23 -19 -23 -9 -2 15 32 -9 30 -41 -4 -33 -36 -67 -52 -144 -68
-63 -13 -65 -13 -65 7 0 46 139 136 213 137 12 0 40 9 62 19 22 10 42 17 44
15 2 -1 -6 -16 -18 -32z m-541 -52 c38 -19 80 -63 80 -83 0 -7 -4 -7 -12 1 -8
8 -15 9 -25 0 -10 -8 -19 -6 -36 9 -41 37 -54 40 -33 8 10 -17 13 -24 5 -17
-19 17 -29 15 -22 -5 3 -10 -19 8 -49 40 -30 31 -61 57 -69 57 -12 0 -12 2 1
11 21 14 114 2 160 -21z m98 -162 c7 -7 12 -15 12 -20 0 -12 -51 -34 -121 -51
-36 -9 -78 -23 -94 -31 -73 -38 -20 22 74 85 48 31 107 39 129 17z m290 -27
c21 -11 56 -23 77 -27 l40 -8 -31 -6 c-45 -10 -154 -2 -171 12 -12 10 -12 13
3 21 17 10 17 11 -1 18 -16 6 -13 8 13 8 18 1 50 -8 70 -18z m2550 -12 c22
-12 51 -31 64 -43 13 -11 19 -18 14 -13 -18 13 -33 7 -74 -33 -22 -22 -49 -40
-60 -40 -24 0 -111 -89 -238 -245 -54 -66 -121 -146 -150 -179 -66 -72 -83
-116 -60 -151 16 -24 50 -33 71 -17 6 4 42 45 80 92 38 47 136 162 217 257 81
94 149 177 150 183 2 7 22 32 45 57 23 24 43 49 45 55 4 12 85 -28 132 -66
l29 -23 -34 -45 c-20 -28 -44 -48 -60 -52 -16 -3 -49 -31 -85 -73 -33 -37 -95
-109 -139 -159 -93 -106 -210 -245 -242 -288 -29 -38 -29 -71 -1 -90 44 -31
59 -21 158 101 52 64 153 184 223 266 162 188 165 193 144 214 -14 14 -12 20
16 64 19 28 38 46 45 43 17 -5 107 -66 146 -97 l29 -23 -99 -100 c-55 -54
-133 -142 -175 -194 -42 -52 -124 -148 -182 -213 -112 -126 -129 -162 -102
-204 15 -23 39 -29 69 -17 8 3 50 49 93 102 42 54 113 140 158 192 142 166
205 250 205 274 0 13 11 45 26 71 14 26 23 54 19 62 -7 19 66 -39 99 -78 20
-24 26 -42 26 -80 0 -43 -5 -56 -42 -102 -24 -30 -86 -109 -138 -176 -98 -127
-233 -292 -304 -371 -62 -70 -132 -118 -203 -140 -74 -23 -124 -25 -189 -9
-35 9 -43 15 -39 29 5 15 -2 17 -52 16 -32 -1 -67 3 -78 8 -40 19 -146 109
-161 137 -14 29 -14 31 44 107 33 42 89 106 125 141 36 36 65 68 64 71 -2 7
61 83 153 184 36 40 39 46 15 29 -27 -19 -75 -67 -208 -210 -22 -24 -43 -41
-47 -38 -8 5 -50 -39 -82 -85 -16 -24 -17 -24 -17 -4 -1 12 12 48 29 80 35 70
35 67 10 54 -18 -10 -20 -8 -20 17 -1 24 -4 20 -21 -22 -11 -27 -28 -65 -37
-84 -9 -18 -15 -46 -14 -60 2 -15 -2 -40 -8 -56 -11 -29 -12 -29 -26 -11 -16
23 -19 4 -3 -26 6 -11 8 -22 5 -25 -2 -3 -26 37 -52 88 -45 90 -46 96 -42 164
6 90 39 155 148 295 110 141 396 476 423 495 32 22 117 19 165 -6z m-2706 -21
c19 -25 38 -81 38 -113 -1 -19 -1 -19 -11 -1 -7 11 -14 14 -18 8 -10 -16 -91
88 -91 116 0 20 4 23 32 18 18 -3 40 -15 50 -28z m-487 -7 c17 -7 10 -13 -45
-41 -94 -48 -178 -136 -220 -232 -34 -78 -56 -102 -45 -50 4 15 27 69 52 119
50 103 95 151 177 189 56 26 53 26 81 15z m936 -11 c21 0 101 -69 96 -84 -2
-6 2 -27 10 -46 l14 -35 -43 47 c-24 26 -66 63 -95 82 -50 33 -59 53 -18 42
11 -3 27 -6 36 -6z m-490 -180 c54 -39 99 -75 99 -81 0 -16 -62 -48 -108 -55
-59 -9 -142 11 -232 55 -63 31 -76 41 -78 63 -7 61 37 85 161 87 57 1 61 -1
158 -69z m-2941 -15 c36 -8 111 -14 168 -15 69 0 112 -5 130 -14 31 -16 74
-61 91 -93 15 -29 101 -371 101 -400 0 -27 7 -27 -100 -7 -406 74 -1122 -89
-1488 -338 -40 -28 -77 -47 -81 -42 -4 5 -31 86 -59 179 -75 245 -70 295 35
366 26 18 73 55 104 83 43 40 82 61 170 97 l114 47 125 0 c179 1 329 39 451
117 46 30 63 34 114 34 33 0 89 -6 125 -14z m3857 -22 c-3 -10 -5 -4 -5 12 0
17 2 24 5 18 2 -7 2 -21 0 -30z m-2237 -192 c0 -5 -8 -7 -18 -4 -10 2 -34 -3
-53 -11 -19 -9 -24 -13 -11 -10 45 11 20 -13 -68 -66 -112 -67 -181 -119 -280
-209 -43 -39 -81 -71 -85 -71 -3 0 -3 10 1 22 6 19 5 21 -8 11 -8 -7 -21 -31
-28 -53 -7 -22 -21 -47 -31 -56 -16 -14 -18 -13 -29 21 -7 20 -10 66 -8 101 5
77 -8 62 -26 -34 -18 -87 -32 -121 -53 -129 -10 -4 -21 -11 -25 -17 -4 -6 -8
25 -8 69 0 68 4 89 29 142 34 71 107 155 130 151 9 -2 27 9 40 25 26 31 75 60
85 50 3 -3 14 1 24 10 33 30 96 50 182 57 128 11 240 11 240 1z m2186 -96 c53
-127 51 -147 -30 -340 -91 -217 -108 -251 -126 -246 -28 6 -155 45 -159 47 -2
2 22 31 53 65 107 115 182 274 207 438 6 41 9 90 5 109 -8 52 7 29 50 -73z
m-2196 21 c0 -43 -9 -66 -25 -66 -11 0 -15 -15 -30 -110 -2 -14 -16 -35 -32
-47 l-28 -22 48 14 c26 8 53 17 58 21 12 7 3 -83 -12 -123 -10 -27 -117 -83
-159 -83 -16 0 -30 -4 -30 -10 0 -11 -30 -13 -54 -4 -21 8 -20 40 2 54 15 10
15 11 -3 5 -11 -4 -64 -9 -117 -12 -92 -6 -98 -5 -98 13 0 30 20 53 146 165
100 89 303 238 327 239 4 0 7 -15 7 -34z m-1256 -271 c55 -8 113 -23 130 -33
36 -20 76 -93 76 -138 l0 -31 -257 0 c-364 2 -545 -25 -849 -124 -144 -47
-353 -138 -435 -191 l-55 -35 -62 28 -62 28 0 44 c0 42 4 49 51 91 65 59 307
181 464 236 185 63 414 116 585 133 96 10 325 5 414 -8z m1809 -289 c121 -33
267 -123 267 -166 0 -21 -66 -122 -117 -179 l-39 -44 -50 36 c-79 57 -123 70
-212 65 -55 -3 -92 -12 -129 -30 -39 -18 -53 -21 -53 -12 0 8 3 13 8 12 13 -4
52 13 52 23 0 13 -14 11 -28 -3 -9 -9 -12 -9 -12 1 0 11 -3 11 -15 1 -8 -7
-24 -10 -35 -7 -21 5 -64 -25 -52 -38 4 -4 -3 -5 -15 -2 -28 6 -38 -6 -18 -23
10 -9 15 -9 15 -1 0 6 4 11 8 11 5 0 7 -15 4 -32 l-4 -33 43 40 44 40 -37 -40
c-57 -62 -113 -180 -139 -292 l-22 -98 -78 -1 c-62 -1 -89 -6 -126 -26 -57
-29 -62 -46 -52 -176 10 -114 36 -209 86 -304 2 -5 1 -8 -2 -8 -15 0 -86 174
-102 250 -24 115 -24 396 0 487 23 89 108 258 162 325 83 103 217 189 357 228
83 23 193 21 291 -4z m-863 -66 c18 -18 20 -33 20 -162 0 -79 -4 -149 -9 -157
-9 -14 -118 -30 -218 -31 l-63 0 0 -77 c0 -43 5 -318 11 -612 l11 -533 -21
-21 c-20 -20 -34 -22 -169 -25 -135 -4 -148 -2 -164 15 -15 16 -19 53 -28 229
-6 115 -17 340 -25 499 -8 160 -15 328 -15 375 0 47 -3 96 -7 109 l-6 24 -137
-7 c-110 -5 -140 -3 -149 8 -6 7 -20 80 -32 161 -26 192 -32 184 147 197 170
12 480 24 677 26 145 2 159 0 177 -18z m1800 10 c37 -6 101 -28 149 -51 138
-65 231 -177 291 -349 18 -52 24 -93 27 -205 3 -85 1 -150 -6 -165 -8 -19 -9
-4 -6 65 4 90 -12 248 -24 241 -3 -2 -6 9 -7 24 -1 38 -45 126 -84 170 -30 34
-30 34 -14 5 l16 -30 -20 25 c-11 13 -19 27 -16 31 7 12 -57 67 -115 97 -118
63 -253 83 -371 57 -71 -17 -130 -39 -130 -51 0 -3 4 -2 10 1 6 3 7 -1 4 -10
-4 -9 -9 -13 -12 -10 -3 2 -10 -5 -16 -18 -7 -13 -23 -23 -40 -25 -20 -3 -26
0 -20 9 4 7 -3 5 -17 -4 -35 -25 -90 -98 -82 -110 3 -5 1 -7 -4 -4 -12 8 -62
-66 -87 -127 -21 -50 -52 -173 -64 -248 -9 -55 -8 -58 12 -59 l21 0 -21 -11
c-26 -12 -34 -50 -34 -169 0 -90 20 -218 45 -290 9 -23 13 -44 11 -46 -9 -9
-65 184 -75 260 -17 122 -14 273 8 378 59 284 185 476 374 569 112 56 183 68
297 50z m1944 -72 c-4 -6 1 -8 13 -4 14 4 30 -3 54 -23 l34 -30 -30 -33 c-55
-60 -78 -80 -72 -63 5 12 3 14 -10 7 -28 -16 -49 13 -33 46 11 25 11 26 -7 11
-10 -8 -26 -14 -36 -11 -14 3 -9 13 29 63 26 32 51 56 55 53 5 -3 6 -10 3 -16z
m1501 -43 c112 -29 252 -88 296 -124 l31 -27 -59 -36 c-40 -25 -78 -61 -121
-117 -35 -45 -65 -81 -68 -81 -3 0 -2 5 1 10 8 13 -28 13 -40 1 -6 -6 -36 -24
-67 -40 -69 -37 -132 -41 -170 -12 -14 11 -47 25 -74 32 -27 7 -71 22 -98 34
l-49 23 29 15 c198 110 361 163 559 183 l130 13 -130 -5 c-193 -7 -418 -60
-560 -132 -36 -18 -46 -20 -36 -8 13 15 12 16 -14 6 -26 -10 -27 -9 -21 17 4
16 21 51 37 78 l31 50 -32 -30 c-18 -16 -45 -48 -60 -70 -31 -44 -79 -61 -81
-27 0 14 -2 14 -9 -3 -7 -16 -9 -16 -9 -4 -2 29 72 127 125 167 66 50 133 81
209 97 90 20 145 18 250 -10z m-1375 -40 c0 -8 -2 -15 -4 -15 -2 0 -12 -3 -21
-7 -15 -5 -16 -3 -6 15 13 25 31 29 31 7z m-4993 -27 c21 -22 46 -179 124
-768 7 -52 13 -174 13 -270 1 -156 -2 -183 -22 -250 -31 -98 -58 -144 -124
-207 -86 -81 -172 -116 -316 -128 -248 -22 -436 117 -529 388 -54 159 -208
943 -201 1025 4 46 19 54 153 80 225 45 219 48 241 -118 25 -192 84 -567 110
-704 46 -234 90 -305 191 -306 78 0 130 66 140 178 7 91 -46 449 -122 821 -32
158 -32 196 -3 212 21 11 270 66 309 68 8 1 25 -9 36 -21z m-1582 -3 c114 -24
228 -86 310 -169 83 -84 127 -155 168 -273 26 -77 31 -105 35 -223 5 -160 -11
-248 -61 -355 -66 -137 -169 -246 -301 -320 -73 -40 -209 -95 -236 -95 -11 0
-20 -2 -20 -4 0 -2 13 -44 29 -93 89 -274 131 -412 131 -437 0 -16 -10 -36
-25 -50 -31 -29 -143 -72 -238 -92 -159 -33 -162 -30 -266 276 -171 502 -324
1036 -395 1383 -32 154 -32 185 -3 227 51 76 346 198 567 233 62 10 241 5 305
-8z m5866 -11 c192 -57 326 -200 378 -406 24 -95 34 -178 22 -178 -5 0 -12 24
-16 53 -13 97 -67 229 -122 296 -2 3 -9 -1 -16 -9 -10 -10 -9 -11 2 -5 10 6
12 4 6 -4 -6 -10 -12 -8 -28 7 -16 17 -18 24 -8 35 25 31 -126 117 -249 143
-198 42 -388 -30 -513 -194 -80 -104 -158 -283 -182 -417 -3 -16 -10 -59 -16
-93 -14 -77 -16 -192 -7 -287 l7 -70 -19 75 c-25 99 -25 237 0 383 41 237 108
385 230 508 83 84 143 123 240 156 80 28 210 31 291 7z m-1464 -90 c-3 -3 -12
-4 -19 -1 -8 3 -5 6 6 6 11 1 17 -2 13 -5z m91 -1 c-10 -2 -26 -2 -35 0 -10 3
-2 5 17 5 19 0 27 -2 18 -5z m47 -3 c-3 -5 1 -10 9 -10 9 0 16 -4 16 -10 0 -6
-10 -5 -25 2 -19 8 -22 14 -13 20 17 10 20 10 13 -2z m65 -55 c13 -14 21 -25
18 -25 -2 0 -15 11 -28 25 -13 14 -21 25 -18 25 2 0 15 -11 28 -25z m1270 -76
c6 -10 10 -29 10 -42 0 -13 9 -32 20 -42 29 -26 13 -39 -18 -14 -34 26 -88 49
-117 49 -56 0 -58 12 -8 40 56 31 100 35 113 9z m876 -45 c96 -31 107 -40 68
-54 -28 -11 -46 -10 -109 6 l-27 7 23 -27 c12 -14 28 -26 35 -26 7 0 16 -5 20
-12 4 -7 3 -8 -4 -4 -7 4 -12 1 -12 -8 0 -8 6 -18 13 -23 12 -7 17 -9 36 -12
5 0 7 -10 4 -21 -3 -11 -1 -20 5 -20 6 0 13 8 15 18 3 11 5 8 5 -8 1 -14 -8
-50 -18 -80 -17 -47 -19 -49 -14 -17 4 32 2 37 -15 37 -17 0 -19 4 -10 32 12
43 11 47 -6 24 -8 -11 -15 -15 -15 -9 0 7 -12 11 -27 9 -16 -1 -34 2 -40 7 -7
5 -13 6 -13 2 0 -5 -16 9 -36 29 l-36 37 7 -32 c5 -21 4 -29 -3 -25 -6 3 -13
-8 -17 -25 -4 -18 -10 -27 -14 -21 -3 6 -22 -49 -40 -121 -112 -437 -157 -601
-207 -754 -86 -268 -84 -235 13 197 38 167 189 751 220 849 l27 83 46 -6 c25
-3 82 -18 126 -32z m-1053 -1 c-7 -2 -19 -2 -25 0 -7 3 -2 5 12 5 14 0 19 -2
13 -5z m-997 -209 c4 -38 8 -43 37 -48 18 -3 46 -16 62 -27 28 -20 29 -21 5
-15 -14 3 -46 6 -72 6 l-48 0 1 88 c2 84 3 84 15 -4z m2807 -46 c48 -23 87
-44 87 -48 0 -25 -69 -17 -200 25 -17 5 -20 4 -15 -5 6 -9 0 -12 -23 -8 -17 2
-29 1 -27 -3 3 -4 -2 -10 -11 -13 -10 -4 -13 -2 -8 6 5 7 -27 -17 -70 -52 -43
-36 -115 -94 -160 -129 -52 -40 -80 -69 -78 -80 2 -14 1 -14 -7 -1 -9 13 -14
12 -33 -9 -13 -13 -18 -21 -11 -17 6 3 14 0 16 -6 3 -8 6 -6 6 5 1 10 6 15 11
12 6 -4 7 -11 4 -17 -4 -6 3 -5 15 2 36 18 61 20 61 4 0 -8 5 -14 10 -14 15 0
8 -79 -7 -85 -7 -2 -12 1 -10 8 1 7 -4 11 -10 9 -7 -1 -13 3 -13 8 0 7 -8 6
-22 -1 -21 -11 -22 -11 -9 5 12 15 12 17 0 14 -8 -2 -18 -7 -22 -13 -5 -6 -7
-1 -4 11 3 13 -3 25 -14 33 -14 8 -19 8 -19 0 0 -6 -9 -9 -20 -6 -11 3 -23 0
-27 -5 -4 -7 -1 -8 8 -3 8 5 11 5 7 1 -3 -4 -10 -8 -15 -8 -4 0 -26 -11 -48
-23 -22 -13 -53 -29 -70 -34 -25 -9 -19 -1 35 49 36 34 117 104 180 158 63 53
147 124 185 158 39 33 92 77 118 96 44 34 50 35 85 26 20 -5 76 -28 125 -50z
m-746 -20 c-3 -8 -6 -5 -6 6 -1 11 2 17 5 13 3 -3 4 -12 1 -19z m-770 -110
c-2 -13 -4 -3 -4 22 0 25 2 35 4 23 2 -13 2 -33 0 -45z m765 -54 c-15 -60 -28
-99 -30 -86 -2 12 -10 22 -18 22 -13 0 -19 25 -14 60 2 14 49 60 62 60 3 0 9
14 13 31 4 17 9 29 11 27 2 -2 -9 -53 -24 -114z m-1793 91 c0 -5 -4 -18 -7
-28 -7 -16 -11 -15 -36 12 l-29 30 37 -2 c20 -1 36 -6 35 -12z m378 -21 c-3
-3 -12 -4 -19 -1 -8 3 -5 6 6 6 11 1 17 -2 13 -5z m63 -13 c0 -5 -9 -7 -20 -4
-11 3 -20 7 -20 9 0 2 9 4 20 4 11 0 20 -4 20 -9z m841 -172 l-9 -34 -1 30 c0
17 2 41 6 55 7 23 8 24 11 4 2 -12 -1 -37 -7 -55z m-1625 -36 c-26 -76 -91
-177 -133 -206 -55 -38 -126 -52 -183 -37 -49 13 -130 85 -130 114 0 14 5 12
23 -8 54 -61 156 -83 232 -51 61 25 140 109 171 181 31 74 44 79 20 7z m1604
-68 c0 -8 -2 -15 -4 -15 -2 0 -6 7 -10 15 -3 8 -1 15 4 15 6 0 10 -7 10 -15z
m-2972 -87 c100 -43 200 -35 323 27 37 18 70 31 72 28 11 -11 -106 -102 -151
-117 -58 -20 -134 -20 -202 0 -41 12 -67 29 -112 74 -66 66 -79 102 -17 45 22
-20 62 -46 87 -57z m2634 -22 c-61 -130 -127 -206 -201 -231 -126 -43 -240 12
-271 129 -8 26 -7 28 3 11 20 -33 70 -77 104 -91 43 -18 125 -18 169 1 56 23
156 126 189 195 16 33 31 58 33 55 2 -2 -9 -33 -26 -69z m858 64 c0 -5 -2 -10
-4 -10 -3 0 -8 5 -11 10 -3 6 -1 10 4 10 6 0 11 -4 11 -10z m295 -39 l30 -8
-30 -12 c-31 -13 -88 -9 -160 12 l-40 11 40 6 c48 7 119 3 160 -9z m-3336 -76
c0 -5 -4 -3 -9 5 -5 8 -9 22 -9 30 0 16 17 -16 18 -35z m3446 -320 c31 -115
68 -253 82 -305 27 -103 41 -136 51 -125 10 10 40 -95 34 -117 -7 -30 -42 56
-106 261 -52 167 -136 478 -136 505 0 39 26 -38 75 -219z m-291 5 c4 -28 3
-39 -3 -30 -5 8 -12 38 -15 65 -8 62 8 30 18 -35z m-4027 -136 c154 -147 372
-225 593 -210 162 10 293 50 415 128 l40 25 41 -28 c83 -57 186 -101 283 -121
231 -48 488 20 656 174 36 33 67 59 69 57 1 -2 17 -30 33 -61 28 -52 29 -58
13 -63 -10 -3 -39 -28 -64 -55 -46 -49 -46 -50 -66 -30 -28 28 -47 25 -64 -9
-9 -16 -26 -31 -39 -35 -28 -7 -37 -30 -37 -103 0 -52 -1 -53 -30 -53 -20 0
-33 -7 -41 -22 -15 -29 -15 -111 0 -176 12 -48 11 -53 -12 -84 -14 -18 -31
-55 -39 -82 -18 -65 -38 -72 -38 -13 0 63 -17 145 -40 192 -28 57 -111 138
-183 176 -52 27 -66 31 -110 26 -40 -5 -57 -2 -91 17 -34 18 -54 22 -116 21
-129 -3 -130 -3 -140 -30 -7 -18 -17 -25 -36 -25 -35 0 -234 -85 -263 -112
-23 -21 -25 -52 -5 -103 7 -17 2 -16 -30 9 -38 28 -38 29 -31 5 4 -13 16 -31
27 -39 79 -59 213 -241 182 -248 -30 -7 -11 -41 38 -67 12 -5 32 -25 47 -44
l26 -34 -38 5 c-34 4 -39 1 -64 -37 -55 -81 -148 -187 -194 -220 -26 -19 -73
-47 -105 -62 -54 -25 -71 -28 -199 -31 -177 -5 -251 11 -351 73 -86 54 -149
119 -196 205 -54 97 -71 174 -70 312 1 130 13 177 61 254 17 26 31 57 31 68
-1 36 -47 -31 -71 -102 l-21 -64 -24 42 -24 41 21 42 c39 75 71 108 100 102
17 -4 31 0 43 14 23 25 14 39 -29 47 -70 13 -185 -48 -220 -117 -15 -27 -15
-27 -47 -12 -92 46 -239 -1 -399 -128 -19 -15 -53 -23 -145 -33 -65 -7 -126
-16 -135 -20 -11 -5 -23 4 -42 31 -48 69 -139 136 -243 178 l-54 22 67 17
c164 39 325 158 396 293 l35 66 20 -45 c23 -54 77 -110 135 -140 39 -21 54
-23 207 -22 139 0 176 4 235 22 134 41 205 138 205 282 l1 75 31 -40 c17 -22
60 -67 95 -101z m-2211 -14 c49 -99 68 -126 143 -200 61 -61 108 -97 161 -125
61 -33 70 -40 50 -42 -48 -6 -156 -36 -244 -70 -101 -38 -206 -100 -351 -208
-55 -41 -103 -75 -107 -75 -4 0 8 28 25 62 46 89 43 156 -17 357 -25 85 -46
159 -46 165 0 6 37 31 82 56 50 28 113 75 162 122 45 42 82 75 83 75 1 -1 27
-54 59 -117z m4398 -200 c-5 -5 -10 3 -11 18 -1 22 0 24 9 8 6 -10 6 -22 2
-26z m316 12 c0 -18 -55 -61 -68 -53 -10 6 -8 14 8 34 20 25 60 38 60 19z m54
-8 c13 -5 14 -9 5 -20 -9 -11 -9 -14 0 -14 20 0 -19 -34 -40 -35 -10 -1 -40
-22 -67 -47 -27 -26 -74 -58 -103 -73 l-54 -26 35 31 c29 25 70 55 184 132 6
4 7 10 3 14 -3 4 -13 1 -21 -5 -10 -8 -16 -9 -21 -1 -3 5 -1 10 4 10 6 0 20 9
31 20 22 22 22 22 44 14z m-295 -57 c0 -7 -9 -30 -20 -52 l-19 -40 6 50 c4 28
9 53 11 58 6 10 23 -2 22 -16z m-268 -23 c-9 -28 -9 -29 -10 -3 -1 14 2 29 6
32 11 12 13 2 4 -29z m375 10 c-3 -9 -6 -20 -6 -24 0 -5 -10 -14 -21 -21 -17
-9 -23 -8 -30 2 -6 10 -9 11 -9 2 0 -7 -5 -13 -12 -13 -7 0 3 16 22 35 35 37
67 47 56 19z m49 -5 c-1 -11 -16 -32 -34 -46 l-33 -26 13 24 c12 21 50 69 54
69 1 0 1 -9 0 -21z m-259 -17 c-17 -16 -18 -16 -5 5 7 12 15 20 18 17 3 -2 -3
-12 -13 -22z m36 -50 c-4 -53 -4 -53 -18 -27 -8 15 -14 32 -14 38 0 10 31 50
35 45 1 -2 -1 -27 -3 -56z m920 -47 c21 -56 67 -112 115 -143 51 -32 198 -82
300 -102 112 -22 211 3 283 70 33 30 34 30 44 -15 6 -27 3 -31 -26 -41 -68
-24 -255 -106 -297 -131 -43 -25 -47 -26 -119 -14 -41 6 -111 24 -156 39 l-81
28 -135 -23 c-123 -21 -181 -25 -311 -20 l-46 2 11 28 c9 24 8 31 -6 41 -29
22 -160 28 -209 11 -44 -16 -69 -14 -69 5 0 5 16 10 35 10 59 0 112 28 155 82
22 28 40 54 40 59 0 10 -26 36 -42 42 -8 2 -1 14 20 31 17 15 32 33 32 39 0 8
34 12 113 12 114 1 205 18 292 55 l40 17 3 -26 c2 -14 8 -39 14 -56z m-983 43
c-12 -24 -49 -63 -49 -53 0 20 49 89 57 81 3 -2 -1 -15 -8 -28z m-69 -7 c0
-11 -5 -32 -11 -48 -14 -35 -23 -15 -15 33 7 36 26 47 26 15z m-60 -78 c0 -18
-4 -33 -10 -33 -5 0 -10 21 -10 48 0 34 3 43 10 32 5 -8 10 -30 10 -47z m-739
11 c15 -7 41 -25 58 -40 32 -27 37 -22 21 20 -13 35 3 34 66 -5 40 -26 45 -27
29 -9 l-20 23 25 -8 c14 -4 50 -24 80 -44 43 -28 62 -49 87 -99 21 -40 33 -78
33 -102 0 -44 -14 -59 -29 -33 -8 14 -11 15 -12 3 -1 -8 -1 -18 0 -22 0 -4 -8
-12 -18 -18 -17 -9 -21 -5 -31 28 -23 72 -63 153 -72 144 -5 -5 -2 -27 7 -52
8 -24 13 -45 10 -48 -3 -3 -5 1 -5 9 0 12 -2 12 -9 0 -6 -10 -12 -3 -21 25
-20 65 -20 67 -25 63 -2 -3 0 -22 5 -44 12 -50 5 -74 -20 -72 -11 1 -20 5 -20
10 0 4 -4 5 -10 2 -5 -3 -10 -2 -10 3 0 5 -15 16 -32 23 -18 7 -53 33 -76 59
-28 29 -38 35 -27 17 10 -15 16 -30 13 -32 -6 -7 -97 25 -104 36 -3 5 -10 9
-16 9 -6 0 -3 -9 8 -21 18 -20 18 -20 -11 -13 -17 4 -51 22 -76 40 -61 43
-109 67 -109 54 0 -5 17 -18 38 -29 43 -23 28 -28 -23 -7 -18 8 -36 12 -38 9
-9 -9 -48 8 -41 18 3 5 11 7 17 3 7 -3 4 1 -6 9 -16 14 -23 14 -54 1 -19 -9
-37 -13 -39 -11 -3 2 19 14 48 27 41 17 56 20 70 11 24 -15 25 -14 24 12 -1
20 5 23 74 29 41 4 83 5 93 2 21 -6 23 12 2 20 -8 3 -15 10 -15 16 0 14 126 2
161 -16z m-1553 -39 c-20 -38 -36 -55 -49 -55 -16 0 -18 3 -9 19 11 22 74 91
83 91 3 0 -8 -25 -25 -55z m2238 18 c-10 -10 -19 5 -10 18 6 11 8 11 12 0 2
-7 1 -15 -2 -18z m147 6 c5 -3 2 -9 -7 -12 -12 -5 -16 0 -16 15 0 12 3 17 8
12 4 -5 11 -12 15 -15z m-3545 -38 c104 -35 190 -87 173 -104 -7 -7 -5 -19 5
-39 8 -16 14 -34 12 -39 -2 -5 -48 20 -102 56 -55 36 -117 70 -138 76 -22 5
-47 12 -56 15 -9 3 -5 -2 11 -11 15 -8 27 -20 27 -24 0 -10 -18 -7 -108 20
-34 10 -93 21 -130 24 -64 5 -63 4 30 -14 53 -11 107 -26 120 -35 12 -9 39
-16 60 -16 21 0 38 -5 38 -11 0 -6 7 -17 15 -25 34 -35 19 -41 -117 -48 -156
-8 -291 -27 -443 -62 -186 -43 -227 -54 -320 -89 -49 -19 -92 -32 -94 -29 -3
3 5 7 17 11 12 3 22 8 22 12 0 4 21 22 46 40 43 30 45 33 28 45 -15 12 -22 11
-44 -2 -38 -24 -12 0 50 45 62 45 126 80 115 64 -3 -6 14 -1 40 11 36 18 42
24 28 29 -24 8 49 45 173 88 125 42 179 50 324 47 109 -3 137 -7 218 -35z
m3309 17 c-3 -8 -6 -5 -6 6 -1 11 2 17 5 13 3 -3 4 -12 1 -19z m565 15 l-22
-4 21 -18 c19 -15 19 -18 5 -30 -8 -7 -56 -20 -107 -28 -77 -13 -93 -14 -100
-2 -6 10 -1 21 18 37 24 22 34 24 104 20 42 -1 72 0 66 4 -7 4 -21 8 -32 9
-17 1 -16 2 5 9 14 4 34 8 45 8 16 -1 16 -2 -3 -5z m-182 -17 c0 -9 -233 -200
-247 -202 -22 -4 7 26 102 105 107 89 145 115 145 97z m-2740 -90 c0 -2 -20
-24 -45 -48 -29 -30 -45 -54 -45 -70 0 -14 -13 -44 -29 -68 -16 -23 -26 -50
-24 -60 8 -30 -130 -160 -210 -198 -86 -41 -99 -41 -50 1 22 17 53 43 69 57
62 52 125 135 164 213 60 120 80 148 114 163 30 13 56 18 56 10z m1465 -37
c43 -11 90 -26 104 -34 l26 -13 -30 -12 c-41 -16 -135 -25 -135 -13 0 15 -52
73 -66 73 -7 0 -16 5 -19 10 -10 16 34 12 120 -11z m295 -116 c25 -14 78 -42
118 -64 102 -54 186 -125 116 -99 -33 13 -34 13 -34 -6 0 -8 -4 -13 -9 -9 -6
3 -25 -1 -43 -10 l-33 -15 42 5 c23 3 50 8 60 11 12 5 15 4 8 -4 -19 -20 -140
-53 -212 -57 -62 -4 -77 -1 -119 21 -55 29 -145 120 -137 140 3 9 -5 12 -26
12 -25 -1 -29 -4 -20 -15 6 -7 8 -13 4 -13 -4 0 -3 -6 2 -12 5 -7 10 -23 11
-36 l1 -23 -18 23 c-46 59 -51 88 -17 88 14 0 28 5 31 11 4 6 14 8 22 4 9 -3
25 -3 36 1 16 5 12 9 -24 27 -24 12 -53 24 -64 28 -23 7 -22 7 90 28 33 6 61
15 63 21 4 11 87 -20 152 -57z m597 -48 c-32 -67 -72 -24 -47 51 l12 36 26
-26 c26 -25 26 -26 9 -61z m473 70 c-14 -7 -27 -11 -30 -9 -6 7 22 24 40 23 9
0 5 -6 -10 -14z m-3834 -36 c43 -6 87 -18 98 -26 20 -15 20 -15 1 -8 -11 4
-58 9 -105 11 -47 2 -99 6 -116 9 -24 4 -35 0 -55 -21 l-24 -27 30 21 c29 20
34 20 125 8 110 -15 168 -30 194 -49 17 -13 16 -16 -26 -50 -24 -20 -70 -48
-100 -61 l-56 -25 -67 40 c-88 51 -110 57 -124 31 -14 -27 -13 -58 4 -105 13
-38 13 -38 -6 -21 -16 14 -23 15 -46 5 -98 -45 -300 -10 -458 80 -55 31 -57
31 -169 28 -63 -2 -114 -3 -112 -2 1 1 49 20 106 43 126 49 309 97 440 115
119 16 364 18 466 4z m4030 -74 c-11 -8 -27 -15 -35 -15 -13 1 -12 4 3 15 11
8 27 15 35 15 13 -1 12 -4 -3 -15z m-3580 -47 c33 -29 36 -30 30 -10 -6 19 -4
22 17 22 36 0 99 -29 94 -43 -2 -7 -19 -22 -38 -35 l-34 -23 -13 31 c-7 17
-17 28 -22 25 -5 -3 -12 -1 -15 5 -4 6 -15 8 -25 5 -19 -6 -54 31 -44 47 8 12
10 11 50 -24z m3396 2 c108 -23 160 -29 217 -26 59 3 65 2 26 -4 l-50 -7 40
-2 c22 -1 54 -8 70 -16 29 -14 29 -15 -24 -9 -38 4 -52 3 -47 -5 10 -16 -1
-14 -131 23 -65 19 -147 40 -183 46 -69 14 -110 29 -77 30 9 0 81 -14 159 -30z
m-3637 -30 c-4 -7 -18 -7 -43 -1 -2 1 -1 5 2 10 3 5 15 7 26 4 11 -3 18 -9 15
-13z m3666 -127 c18 -13 29 -23 25 -23 -12 0 -65 32 -95 57 -92 79 -80 73 70
-34z m-789 78 c-1 -6 -3 -30 -4 -52 -1 -22 -5 -35 -9 -28 -4 8 -11 4 -19 -11
-11 -21 -10 -22 6 -16 18 6 18 5 0 -9 -22 -17 -40 -20 -32 -6 9 13 -82 -16
-122 -39 -19 -12 -36 -19 -39 -16 -8 8 25 71 49 93 34 32 151 103 163 99 6 -2
9 -9 7 -15z m448 -71 c6 -11 8 -20 6 -20 -3 0 -10 9 -16 20 -6 11 -8 20 -6 20
3 0 10 -9 16 -20z m-3317 -78 c117 -11 145 -27 64 -37 -68 -9 -186 19 -276 64
-33 17 -61 33 -61 35 0 2 39 -9 88 -24 48 -16 130 -33 185 -38z"/>
<path d="M1859 5497 c19 -20 39 -33 48 -30 7 3 13 7 11 8 -2 1 -23 15 -48 30
l-45 27 34 -35z"/>
<path d="M7608 6247 c-43 -74 -113 -213 -158 -317 -18 -41 -38 -79 -45 -85 -7
-5 -45 -71 -84 -145 -40 -74 -82 -143 -94 -154 -15 -12 -21 -27 -18 -45 4 -33
41 -121 51 -121 4 0 18 28 31 63 l23 62 12 -93 c10 -80 16 -98 40 -123 34 -36
82 -52 140 -47 29 2 44 -1 44 -9 0 -21 17 -23 40 -5 19 16 128 277 231 557 17
44 55 139 85 212 36 83 54 141 52 160 -3 26 -6 24 -34 -32 -17 -33 -88 -202
-158 -376 -160 -402 -173 -432 -188 -423 -7 4 -8 3 -4 -4 4 -7 2 -20 -3 -29
-22 -39 -3 104 24 172 39 102 44 122 31 122 -6 0 -12 -11 -12 -24 -2 -24 -76
-126 -123 -171 -21 -19 -26 -20 -40 -9 -9 8 -23 18 -31 22 -12 6 -13 5 -2 -6
16 -18 16 -34 -1 -20 -8 6 -17 8 -21 4 -4 -4 -4 0 0 10 3 10 1 17 -5 17 -6 0
-10 3 -10 8 3 20 -2 32 -12 26 -9 -5 -10 1 -5 20 5 19 2 28 -9 32 -39 15 -6
112 164 487 45 99 101 210 126 248 25 38 45 72 45 74 0 3 -10 5 -22 5 -17 0
-32 -16 -60 -63z"/>
<path d="M7349 6153 c-77 -82 -139 -170 -172 -245 -30 -69 -31 -80 -32 -198 0
-103 3 -130 18 -155 17 -28 18 -28 12 -5 -14 60 -25 198 -19 233 3 21 20 57
37 80 18 23 52 82 76 130 39 78 86 136 99 123 2 -3 -18 -53 -46 -113 -28 -59
-50 -120 -49 -135 1 -15 5 -24 10 -19 8 8 111 283 121 324 9 38 -3 34 -55 -20z"/>
<path d="M7211 5810 c0 -8 4 -22 9 -30 12 -18 12 -2 0 25 -6 13 -9 15 -9 5z"/>
<path d="M7974 5743 c-36 -102 -125 -293 -157 -335 -13 -18 -27 -45 -29 -60
-4 -23 -3 -26 12 -18 10 5 20 17 24 25 3 9 10 14 15 11 5 -4 18 6 29 21 29 41
93 172 91 186 -5 39 3 79 20 94 13 13 20 38 24 86 2 37 3 67 2 67 -2 0 -15
-35 -31 -77z m-68 -265 c-15 -29 -24 -44 -20 -33 3 11 8 36 12 55 6 40 25 67
30 44 2 -8 -8 -37 -22 -66z"/>
<path d="M6230 5905 c-14 -16 -3 -20 19 -6 8 5 9 11 3 15 -5 3 -15 -1 -22 -9z"/>
<path d="M6337 5759 c7 -7 15 -10 18 -7 3 3 -2 9 -12 12 -14 6 -15 5 -6 -5z"/>
<path d="M8480 5403 c0 -6 -7 -10 -16 -9 -9 0 -18 -7 -20 -17 -2 -15 0 -16 14
-5 8 7 -8 -32 -37 -87 -29 -55 -44 -90 -34 -77 27 33 106 192 99 199 -3 4 -6
2 -6 -4z"/>
<path d="M8378 5286 c-60 -67 -125 -151 -142 -184 -11 -22 -16 -56 -15 -119 1
-77 2 -82 9 -42 4 25 15 60 24 77 9 17 25 56 37 88 12 31 46 93 76 137 30 43
53 80 51 82 -2 1 -20 -16 -40 -39z"/>
<path d="M9441 5314 c0 -11 3 -14 6 -6 3 7 2 16 -1 19 -3 4 -6 -2 -5 -13z"/>
<path d="M8352 5090 c0 -14 2 -19 5 -12 2 6 2 18 0 25 -3 6 -5 1 -5 -13z"/>
<path d="M8928 5086 c-25 -20 -26 -22 -8 -23 11 -1 25 7 31 18 15 29 8 31 -23
5z"/>
<path d="M8788 4983 c-14 -16 -34 -41 -44 -58 l-18 -30 22 19 c22 19 32 10 11
-11 -7 -7 -6 -12 5 -16 10 -4 26 8 47 36 25 32 27 37 8 20 -16 -14 -29 -19
-38 -14 -11 7 -8 16 14 45 32 43 29 47 -7 9z"/>
<path d="M8524 4898 c-20 -21 -85 -113 -126 -176 -10 -15 -25 -33 -35 -40 -15
-11 -14 -15 17 -47 20 -20 44 -35 57 -35 13 0 47 -12 76 -26 47 -25 61 -27
157 -25 185 3 206 15 359 193 87 102 119 148 104 148 -4 0 -25 -18 -46 -41
-47 -49 -59 -45 -23 8 14 20 26 42 26 48 0 5 -9 -6 -21 -25 -11 -19 -45 -60
-75 -90 -46 -48 -53 -60 -50 -87 5 -34 -27 -88 -44 -78 -20 12 -79 7 -94 -8
-9 -9 -38 -19 -64 -22 -26 -4 -60 -11 -75 -15 l-28 -9 33 42 c18 23 47 60 65
81 19 23 33 51 33 65 -1 23 -8 18 -73 -51 -103 -110 -106 -111 -241 -99 -4 1
-6 12 -4 26 5 22 2 25 -15 19 -21 -7 -43 16 -25 27 5 3 11 18 11 32 1 14 5 23
9 21 3 -2 21 22 38 53 18 32 43 70 57 85 14 14 23 32 21 38 -2 7 -12 2 -24
-12z"/>
<path d="M8221 4874 c0 -11 3 -14 6 -6 3 7 2 16 -1 19 -3 4 -6 -2 -5 -13z"/>
<path d="M8231 4834 c0 -11 3 -14 6 -6 3 7 2 16 -1 19 -3 4 -6 -2 -5 -13z"/>
<path d="M8838 4683 c-27 -32 -30 -43 -12 -43 10 0 14 3 11 7 -4 3 0 15 10 25
9 10 14 20 11 23 -3 3 -12 -3 -20 -12z"/>
<path d="M4584 5224 c-18 -14 -18 -15 4 -4 12 6 22 13 22 15 0 8 -5 6 -26 -11z"/>
<path d="M4349 5023 c-13 -16 -12 -17 4 -4 9 7 17 15 17 17 0 8 -8 3 -21 -13z"/>
<path d="M5223 4633 c9 -2 23 -2 30 0 6 3 -1 5 -18 5 -16 0 -22 -2 -12 -5z"/>
<path d="M5133 4623 c9 -2 23 -2 30 0 6 3 -1 5 -18 5 -16 0 -22 -2 -12 -5z"/>
<path d="M5333 4620 c16 -5 34 -13 40 -18 12 -9 145 -26 136 -18 -7 7 -167 46
-186 45 -11 0 -7 -4 10 -9z"/>
<path d="M5021 4599 c-66 -23 -70 -26 -32 -25 16 1 27 3 24 6 -3 3 19 13 49
22 29 9 44 17 33 17 -11 0 -44 -9 -74 -20z"/>
<path d="M4793 4448 c-27 -30 -115 -164 -138 -208 l-17 -35 36 38 c20 20 36
33 36 28 0 -10 12 -9 49 3 15 5 19 11 12 15 -8 5 -6 15 9 33 11 15 20 39 20
55 0 22 2 25 10 13 6 -9 10 -10 10 -3 0 6 -4 14 -8 17 -10 6 -9 36 2 54 12 19
1 14 -21 -10z"/>
<path d="M4630 3920 c0 -5 7 -7 15 -4 8 4 15 8 15 10 0 2 -7 4 -15 4 -8 0 -15
-4 -15 -10z"/>
<path d="M1260 4121 c0 -10 19 -25 25 -20 1 2 -3 10 -11 17 -8 7 -14 8 -14 3z"/>
<path d="M1562 4028 c-70 -11 -122 -33 -122 -53 0 -31 141 -559 152 -571 11
-11 155 63 198 102 63 57 90 121 90 215 0 218 -123 337 -318 307z"/>
<path d="M7690 4136 c0 -2 8 -10 18 -17 15 -13 16 -12 3 4 -13 16 -21 21 -21
13z"/>
<path d="M8392 4100 c0 -19 2 -27 5 -17 2 9 2 25 0 35 -3 9 -5 1 -5 -18z"/>
<path d="M8382 4040 c0 -14 2 -19 5 -12 2 6 2 18 0 25 -3 6 -5 1 -5 -13z"/>
<path d="M8371 3994 c0 -11 3 -14 6 -6 3 7 2 16 -1 19 -3 4 -6 -2 -5 -13z"/>
<path d="M4618 1703 c7 -3 16 -2 19 1 4 3 -2 6 -13 5 -11 0 -14 -3 -6 -6z"/>
<path d="M4895 1560 c-13 -6 9 -9 67 -9 48 -1 90 3 93 9 8 12 -131 12 -160 0z"/>
<path d="M6215 6630 c-64 -6 -66 -7 -20 -8 28 -1 57 -7 65 -12 14 -9 13 -11
-9 -14 -5 0 -13 -5 -18 -10 -5 -6 -2 -6 6 -1 11 6 13 4 7 -11 -5 -15 -4 -16 5
-7 13 13 42 6 33 -8 -3 -5 2 -9 12 -9 13 0 15 -6 10 -27 -4 -16 -8 -35 -10
-43 -2 -9 -19 -17 -42 -20 -21 -3 92 -9 251 -12 196 -4 325 -11 399 -23 l108
-17 37 31 c60 51 118 90 177 120 l56 28 -163 17 c-90 9 -218 21 -284 26 -130
10 -507 10 -620 0z"/>
<path d="M6133 6523 c9 -2 25 -2 35 0 9 3 1 5 -18 5 -19 0 -27 -2 -17 -5z"/>
<path d="M6119 6473 c-13 -17 -13 -17 6 -3 11 8 22 16 24 17 2 2 0 3 -6 3 -6
0 -17 -8 -24 -17z"/>
<path d="M6118 6443 c6 -2 18 -2 25 0 6 3 1 5 -13 5 -14 0 -19 -2 -12 -5z"/>
<path d="M5640 6190 c-58 -10 -154 -30 -215 -44 l-110 -27 5 -89 c3 -52 1 -90
-4 -90 -5 0 -7 -2 -4 -5 9 -9 193 36 200 50 20 34 90 116 121 139 19 14 58 40
88 56 62 34 60 34 -81 10z"/>
<path d="M9754 3478 c-4 -13 -7 -52 -6 -88 3 -77 -26 -222 -61 -308 -36 -91
-102 -202 -173 -291 -34 -44 -61 -81 -58 -84 3 -2 0 -16 -5 -31 -6 -15 -7 -26
-1 -26 16 0 114 102 164 170 61 83 150 260 164 326 19 86 26 254 13 301 -14
51 -27 61 -37 31z"/>
<path d="M701 3404 c0 -11 3 -14 6 -6 3 7 2 16 -1 19 -3 4 -6 -2 -5 -13z"/>
<path d="M562 3329 c-3 -152 51 -376 128 -530 70 -140 254 -378 339 -438 l29
-21 -18 39 c-23 47 -153 442 -252 763 -40 130 -76 232 -79 226 -3 -5 -9 -10
-12 -10 -20 0 -46 -11 -42 -18 3 -4 -6 -11 -20 -14 -14 -4 -25 -11 -25 -17 0
-6 -4 -8 -9 -4 -5 3 -13 0 -18 -7 -5 -8 -10 13 -14 52 l-6 65 -1 -86z"/>
<path d="M9515 3263 c-33 -31 -95 -82 -137 -115 -43 -32 -78 -60 -78 -61 0 -1
15 -53 33 -115 l33 -112 26 27 c51 55 108 147 137 222 26 68 57 198 49 206 -2
2 -30 -22 -63 -52z"/>
<path d="M351 3040 c-1 -151 20 -286 68 -430 155 -463 514 -832 1090 -1120
128 -64 296 -135 391 -165 43 -14 71 -34 130 -91 334 -323 678 -496 1293 -648
475 -118 821 -172 1382 -218 193 -15 815 -15 1015 1 732 58 1337 174 1924 367
779 257 1317 563 1728 980 129 132 175 189 262 321 122 187 200 380 236 587
21 124 30 246 18 246 -4 0 -8 -15 -8 -33 0 -47 -34 -177 -71 -269 -57 -145
-183 -351 -290 -475 -30 -34 -68 -82 -84 -105 -17 -24 -46 -52 -64 -63 -19
-11 -68 -52 -110 -90 -668 -617 -1977 -1092 -3331 -1209 -762 -66 -1490 -30
-2212 110 -587 114 -987 251 -1308 450 -95 58 -256 179 -280 210 -14 18 -14
18 4 4 58 -45 523 -245 719 -309 216 -70 458 -129 419 -103 -19 13 -15 26 11
35 32 12 15 19 -147 61 -168 44 -279 89 -306 123 -45 57 -8 142 62 144 41 1
58 -5 -227 75 -214 59 -501 155 -685 227 -36 15 -146 56 -245 92 -199 74 -355
142 -418 182 -23 15 -62 38 -87 51 -74 40 -271 187 -358 267 -80 75 -250 256
-286 305 -13 18 -19 21 -23 11 -7 -16 -81 122 -123 229 -35 89 -58 175 -75
285 l-13 80 -1 -115z m1740 -1607 c13 -16 12 -17 -3 -4 -10 7 -18 15 -18 17 0
8 8 3 21 -13z"/>
<path d="M9709 2648 c-30 -59 -153 -227 -191 -260 -31 -27 -31 -28 -22 -87 l9
-60 71 102 c83 119 102 155 138 261 31 88 28 109 -5 44z"/>
<path d="M9080 1876 c0 -2 9 -6 20 -9 11 -3 18 -1 14 4 -5 9 -34 13 -34 5z"/>
<path d="M3338 963 c7 -3 16 -2 19 1 4 3 -2 6 -13 5 -11 0 -14 -3 -6 -6z"/>
</g>
</svg>
